<svg xmlns="http://www.w3.org/2000/svg" xmlns:xlink="http://www.w3.org/1999/xlink" width="218" height="89.392" viewBox="0 0 218 89.392">
  <defs>
    <linearGradient id="linear-gradient" x2="1" y2="0.771" gradientUnits="objectBoundingBox">
      <stop offset="0" stop-color="#fff"/>
      <stop offset="1" stop-color="#199ebd"/>
    </linearGradient>
  </defs>
  <g id="blogo" transform="translate(-231.883 -442.762)">
    <path id="Path_1" data-name="Path 1" d="M289.339,442.84c-10.844,1.027-15.487,1.788-22.64,3.577-9.322,2.359-19.672,6.583-25.189,10.312-3.539,2.4-7.192,6.24-8.523,8.9-.951,1.979-1.1,2.7-1.1,5.517,0,4.338,1.141,6.621,5.365,10.806,3.539,3.577,7.268,6.278,17.161,12.481,3.881,2.473,7.153,4.566,7.23,4.642a11.827,11.827,0,0,1-2.663,1.522c-7.192,3.463-11,9.018-10.426,15.22a9.5,9.5,0,0,1-.495,4.414c-1.941,5.632.228,9.855,5.9,11.491,2.435.723,8.333.495,11.8-.419,7.23-1.9,13.7-6.545,15.258-11,.571-1.6.913-2.055,1.865-2.321,2.854-.875,2.74-.913,3.2,1.56.495,2.93,1.1,3.729,2.207,3.044.38-.228.3-.647-.266-1.788a7.467,7.467,0,0,1-.761-2.74c0-1.1.152-1.256,1.446-1.636,2.207-.609,28.31-7.039,32.8-8.067l4-.913,1.6,1.218a8.92,8.92,0,0,0,6.925,1.979c3.653-.19,6.393-1.636,9.893-5.175,2.245-2.283,3.158-2.93,4.376-3.158.875-.19,4.033-.837,7.077-1.484,18.036-3.767,51.444-10.083,52.167-9.817.152.076-.152.837-.723,1.712a3.944,3.944,0,0,1-2.74,2.055c-.951.228-2.816.723-4.186,1.1s-3.919,1.065-5.708,1.522-4.947,1.332-7.039,1.9-5.784,1.6-8.181,2.245C366.81,504.824,335.3,513.918,325.259,517c-14.954,4.6-21.651,7-21.651,7.8,0,.571,2.93.457,5.137-.19,1.065-.3,4.909-1.408,8.561-2.473a451.358,451.358,0,0,1,47.3-11c9.36-1.522,14.764-2.245,22.906-3.044,12.328-1.256,15.943-1.37,40.143-1.37,13.7,0,23.629-.114,22.069-.228-24.657-2.131-56.543-1.141-83.292,2.549-6.849.913-9.513,1.027-6.126.228.951-.19,3.615-.875,5.9-1.522,2.321-.609,6.507-1.712,9.322-2.473s7.382-1.94,10.083-2.7c2.74-.723,6.659-1.788,8.752-2.321s5.061-1.332,6.621-1.75a19.229,19.229,0,0,1,2.93-.647,4.439,4.439,0,0,1-.419,1.636c-.8,2.207-.723,4.109.19,4.947,1.636,1.484,3.881-.495,6.811-5.936l1.56-2.892,7.724-2.207c4.224-1.18,8.219-2.4,8.866-2.664,1.027-.419,1.294-.419,1.788.076,1.18,1.18,2.7-.495,6.24-6.925,1.941-3.5,4-7.8,3.729-7.8-.076,0-1.218,2.017-2.511,4.452-4.071,7.648-6.316,10.806-6.925,9.741a22.219,22.219,0,0,1-.114-3.919c.114-4.262,1.788-11.111,5.746-23.211,2.473-7.534,2.778-8.752,2.169-8.752-.989,0-2.892,3.425-7.153,12.937-2.7,5.974-3.691,7.8-4.224,7.838a3.389,3.389,0,0,0-3.348,1.826,3.016,3.016,0,0,1-1.674,1.522,16.244,16.244,0,0,0-3.539,1.712,30.146,30.146,0,0,1-2.7,1.56,11.218,11.218,0,0,1,.19-2.549c.418-2.892.19-4.3-.685-4.3a7.064,7.064,0,0,0-2.435,1.522c-1.065.913-1.941,1.37-2.093,1.141-.571-.951-2.549-.38-4.109,1.18-1.826,1.788-5.9,4.071-7.991,4.414-1.712.266-2.7-.457-3.577-2.664-.609-1.522-1.56-1.826-2.4-.837-.418.533-.533.495-1.027-.19a1.752,1.752,0,0,0-1.027-.761c-.837,0-2.587,1.979-3.387,3.8-1.332,3.006-4.071,6.811-5.061,7.077a1.644,1.644,0,0,1-1.142.038c-.457-.457-.913-3.234-.913-5.669a5.688,5.688,0,0,0-.419-2.778c-.19-.152-1.065.228-1.864.837-3.653,2.588-3.957,2.778-4.3,2.435-.19-.19,0-1.636.495-3.615a17.971,17.971,0,0,0,.685-3.919c-.114-.571-.19-.571-.8.076-.381.342-2.321,2.968-4.338,5.784a37.846,37.846,0,0,1-3.805,4.947,9.61,9.61,0,0,1,.457-2.549,11.747,11.747,0,0,0,.495-3.2c-.114-.723-.19-.685-.761.381-1.1,2.055-1.712,4.186-1.522,5.441.38,2.664,1.332,1.9,5.479-4.262a50.1,50.1,0,0,1,3.158-4.452,7.355,7.355,0,0,1-.418,1.941c-1.37,4.642.152,5.784,3.8,2.854a20.684,20.684,0,0,1,2.321-1.75,10.661,10.661,0,0,1,.228,2.74,15.906,15.906,0,0,0,.457,4.109c.38,1.1.647,1.37,1.75,1.446,1.484.152,2.511-.647,4.262-3.386.8-1.256,1.332-1.75,1.712-1.6.381.114,1.142-.342,2.055-1.218.8-.761,1.636-1.294,1.864-1.18.228.152.419.038.419-.266,0-.761,1.522-2.625,1.979-2.473a2.758,2.758,0,0,1,.837,1.446c.837,2.664,3.653,2.854,7.991.609l2.321-1.218-.152,1.636c-.114,1.446-.038,1.636.723,1.636a6.974,6.974,0,0,0,2.778-1.826,13.266,13.266,0,0,1,2.664-2.093,1.149,1.149,0,0,0,.647-.951c0-.685,2.892-3.881,3.5-3.881.419,0,.38,2.511-.114,5.175-.342,1.9-.723,2.549-2.359,4.376-1.1,1.142-2.587,2.816-3.348,3.691-1.065,1.256-1.636,1.6-2.549,1.6a20.172,20.172,0,0,0-3.006.342c-.989.19-3.12.533-4.68.761-1.56.266-3.919.609-5.213.8-1.332.228-3.539.571-4.947.761-1.446.228-3.539.571-4.68.761s-4.224.723-6.849,1.142c-4.68.761-9.741,1.636-16.552,2.854-1.865.342-4.262.761-5.327.951-1.027.19-3.158.571-4.642.875a8.643,8.643,0,0,1-2.778.3,22.172,22.172,0,0,1,.837-2.321c1.141-2.968,1.18-7.572.038-9.7-1.065-2.017-2.131-2.93-3.234-2.778-1.218.152-1.1,1.218.152,1.37,2.283.266,3.843,4.566,3.006,8.3-.685,3.044-1.75,5.365-2.587,5.631-.8.228-19.862,4.033-20.281,4.033-.3,0-.989-2.207-1.332-4.414-.342-2.169.685-6.7,2.283-9.931a20.477,20.477,0,0,1,7.876-8.3c1.218-.647,2.207-1.332,2.207-1.56s-.609-.685-1.332-1.027c-3.31-1.6-3.691-5.708-.913-9.893a13.882,13.882,0,0,1,7.192-5.213,3.991,3.991,0,0,1,3.691.419c2.587,1.332,3.272,2.816,2.968,6.316-.228,2.93.076,3.425,1.1,1.941,1.256-1.75.342-6.316-1.522-7.991-2.283-2.017-5.175-2.207-8.79-.495-6.392,2.93-9.208,10.312-5.593,14.611l.875,1.065-2.055,1.446c-7.5,5.137-11.149,13.546-9.17,21.118a7.824,7.824,0,0,1,.381,2.321,4.4,4.4,0,0,1-1.788.533c-2.968.495-19.862,4.376-28.994,6.659-3.12.8-5.746,1.408-5.784,1.408-.114-.152.723-7.686,1.256-10.92.8-4.756,1.065-5.327,2.245-5.327.685,0,.951-.19.951-.761a.683.683,0,0,0-.761-.761,1.184,1.184,0,0,1-1.027-.609c-.152-.457,1.6-12.9,2.778-19.824.19-1.027.761-1.6,3.386-3.349,7.191-4.794,14.117-11.415,16.057-15.334a10.09,10.09,0,0,0,.913-7.039c-.913-2.7-4.718-5.061-9.931-6.126A77.873,77.873,0,0,0,289.339,442.84Zm14.269,2.245c5.822,1.37,7.991,3.044,8.295,6.469a6.328,6.328,0,0,1-.837,4.148c-1.712,3.463-7.61,8.6-15.715,13.7l-1.636.989.114-3.577c.076-2.968-.038-3.729-.571-4.262-2.93-2.968-10.2,7.534-19.1,27.7l-2.968,6.7-2.626.609-2.625.571-4.566-2.93c-16.438-10.5-21.346-14.117-24.695-18.15-5.061-6.088-2.549-13.051,7-19.406,9.4-6.24,25.456-11.339,41.475-13.127C289.948,443.982,300.3,444.286,303.608,445.085ZM436.48,460c-.533,1.027-2.93,8.181-4.071,12.1a71.511,71.511,0,0,0-2.778,13.508l-.266,3.234-1.522.228c-1.9.3-3.805.723-9.4,2.055a25.583,25.583,0,0,1-4.642.913,31.353,31.353,0,0,1,.951-4.528c.951-3.767,1.256-4.528,2.283-5.4a27.618,27.618,0,0,1,5.822-3.348,5.292,5.292,0,0,1,.228,2.093c0,1.636.152,2.169.647,2.359.761.3,1.712-.8,3.2-3.8.723-1.37,1.294-2.093,1.56-1.941.3.19.342.076.19-.381a6.776,6.776,0,0,1,.837-3.2c1.75-4.185,7-14.916,7.153-14.764C436.785,459.2,436.67,459.62,436.48,460Zm-143.907,4.947a32.142,32.142,0,0,1-.419,4.224c-.419,2.359-.457,2.435-2.511,3.767-2.169,1.37-2.778,2.169-2.093,2.854.342.342.8.3,1.865,0a6.869,6.869,0,0,1,1.484-.342c.038.038-.19,1.522-.495,3.31s-1.027,6.316-1.56,10.083l-1.027,6.849-1.9.076c-1.027.076-4.262.266-7.115.495a31.906,31.906,0,0,1-5.631.19c-.495-.3.837-3.767,3.881-10.159,6.735-14.231,12.4-23.135,14.725-23.135C292.459,463.159,292.573,463.387,292.573,464.947ZM426.13,479.369c-1.141,2.321-1.9,3.082-1.9,1.864,0-1.065,1.6-4.756,2.207-5.1C427.538,475.487,427.424,476.743,426.13,479.369Zm-15.791-.609c.495.8-4.033,5.4-4.68,4.756a3.77,3.77,0,0,1,.685-1.941C407.638,479.1,409.655,477.656,410.34,478.76Zm-19.063,2.4a7.224,7.224,0,0,1-2.169,2.245c-.647.342-.647.266-.266-.533.685-1.294,1.979-2.587,2.359-2.359A.558.558,0,0,1,391.276,481.157Zm22.374,6.354c-.685,2.017-.761,2.093-2.283,2.321-.875.114-1.6.114-1.6,0,0-.457,4.338-5.061,4.452-4.756A8.1,8.1,0,0,1,413.65,487.511Zm-1.294,3.8a2.734,2.734,0,0,1-.761,1.37,21.4,21.4,0,0,1-4.338,1.18,6.076,6.076,0,0,1,.913-1.674c.989-1.6,1.522-1.865,3.577-1.979C412.737,490.175,412.737,490.213,412.356,491.316Zm-3.348,7.953a19.254,19.254,0,0,1-2.93,4.262c-1.218,1.065-1.408,1.1-1.941.571s-.571-.913-.19-2.7c.761-3.577,1.142-4.033,3.919-4.756a18.933,18.933,0,0,1,2.587-.533A18.308,18.308,0,0,1,409.008,499.269Zm-121.8-.647c0,.685-.381,4.49-.837,8.447l-.837,7.192-1.9.495c-1.027.266-1.941.495-1.979.533-.076,0-.114-.3-.114-.685,0-1.788-2.359-5.327-5.593-8.485-1.865-1.788-3.843-3.615-4.452-4.071-1.027-.8-1.065-.875-.457-1.788,1.408-2.131,3.805-2.7,12.328-2.816l3.881-.038Zm-16.7.076a6.04,6.04,0,0,1-.38,1.18l-.381.989-1.142-.875c-1.027-.761-1.1-.875-.495-1.142C268.868,498.584,270.5,498.47,270.5,498.7Zm-4.566,3.158c1.788,1.218,2.511,1.979,2.4,2.359-.609,1.826-7.42,15.3-8.371,16.59-.913,1.256-1.636,1.712-3.881,2.473l-2.778.951-1.294-1.484a8,8,0,0,1-1.522-2.74c-.19-1.141,0-1.56,1.636-3.653,2.283-2.93,6.05-5.86,8.219-6.393,2.245-.571,2.74-.913,2.74-1.941,0-.723-.228-.951-1.142-1.027-2.283-.19-7.991,4.186-11.529,8.866L249.538,517l.152-2.892c.228-4.566,2.321-7.991,6.545-10.806a30.468,30.468,0,0,1,6.773-3.234A18.2,18.2,0,0,1,265.938,501.856Zm77.128,3.386c-2.968,2.778-5.517,4.033-8.676,4.262-2.892.19-4.794-.3-6.012-1.6l-.837-.913,1.065-.266c2.93-.761,15.258-3.539,15.905-3.577C345.083,503.15,344.7,503.645,343.066,505.243Zm-69.822,2.511c3.006,2.968,4.49,5.175,5.061,7.534.228.913.076.989-3.12,1.865-1.826.495-5.517,1.56-8.143,2.359-2.664.837-4.87,1.484-4.985,1.484a24.475,24.475,0,0,1,1.484-3.349c.875-1.826,2.511-5.479,3.615-8.181,1.1-2.664,2.207-4.832,2.435-4.832A20.044,20.044,0,0,1,273.244,507.754Zm4.109,13.812c-2.093,3.348-7.61,6.7-13.7,8.219-4.528,1.142-9.437.913-11.986-.609a5.97,5.97,0,0,1-3.082-6.05c.419-2.625.761-2.778,1.9-.837a6.536,6.536,0,0,0,1.674,2.093c.342.228.457.419.228.419a2.777,2.777,0,0,0-1.142.609c-.647.533-.457.571,2.473.342a19.255,19.255,0,0,0,4.452-.837c.685-.342,5.4-1.75,10.5-3.158C278.609,519.055,278.913,519.055,277.353,521.567Z" transform="translate(0)" fill-rule="evenodd" fill="url(#linear-gradient)"/>
    <path id="Path_2" data-name="Path 2" d="M714.987,564.755a1.989,1.989,0,0,0,.943,0c.226-.113.038-.188-.49-.188S714.723,564.642,714.987,564.755Z" transform="translate(-298.892 -75.456)" fill-rule="evenodd" fill="url(#linear-gradient)"/>
    <path id="Path_3" data-name="Path 3" d="M559.574,505.5c-1.206.9-3.921,6.371-5.315,10.594-2.111,6.258-2.828,12.7-1.772,15.306,1.093,2.6,3.845,1.621,7.917-2.79,3.355-3.695,2.79-3.695-.792-.038-3.016,3.091-4.863,4.147-5.655,3.355-.6-.6-1.093-3.468-.829-4.9a20.2,20.2,0,0,1,2.074-4.411c2.186-3.581,5.391-11.234,6.032-14.476.415-2,.415-2.375-.075-2.865C560.629,504.747,560.479,504.784,559.574,505.5Zm1.244,1.508a17.009,17.009,0,0,1-.98,4.034,82.408,82.408,0,0,1-5.617,12.215c-.641.829-.641.829-.415-.792.528-3.431,3.77-12.478,5.579-15.419C560.328,505.538,560.818,505.5,560.818,507.008Z" transform="translate(-198.255 -38.403)" fill-rule="evenodd" fill="url(#linear-gradient)"/>
    <path id="Path_4" data-name="Path 4" d="M406.36,520.47c-1.96,2.073-5.542,12.026-6.484,17.983-.49,3.2-.377,6.861.226,7.05.226.075,1.244-1.433,2.262-3.355a30.376,30.376,0,0,1,3.28-5.014c1.432-1.47,1.47-1.47,2-.754a3.088,3.088,0,0,1,.339,2.413c-.339,2.375-.452,2.526-2.45,4-3.77,2.752-5.806,7.351-3.355,7.653,1.395.151,3.129-1.772,4.939-5.5,1.47-3.091,1.546-3.167,3.808-4.222,4.147-1.847,4-1.885,4.109.641.113,2.073.189,2.187,1.131,2.3.829.113,1.206-.151,2-1.395a4.094,4.094,0,0,0,.867-3.242,11.163,11.163,0,0,1-.075-1.7c.038,0,.679.264,1.395.566a7.585,7.585,0,0,0,4.976.188c.49-.226.151-.264-1.131-.151-1.659.189-2.187.038-4.411-1.093l-2.526-1.319-.9,1.508c-.792,1.395-1.206,1.659-4.072,2.6-1.734.6-3.242,1.093-3.355,1.093a4.984,4.984,0,0,1-.075-1.847c.189-2.224-.377-3.431-1.583-3.431-1.244,0-2.865,1.772-4.9,5.391-1.433,2.564-1.734,2.9-1.734,2a9.485,9.485,0,0,1,1.659-3.581c3.2-4.788,6.032-13.232,5.806-17.3C407.982,519.565,407.529,519.188,406.36,520.47Zm1.282,2.941c-.339,3.054-2.413,9.236-4.335,13.082-2.677,5.278-2.978,4.486-1.018-2.639,1.357-4.825,3.695-11.347,4.448-12.252C407.6,520.545,407.906,521.111,407.642,523.411Zm10.9,16.173c-.339,1.81-1.244,3.393-1.885,3.393-.829,0-.716-2.488.226-4.524.754-1.621.792-1.659,1.319-.943A2.614,2.614,0,0,1,418.537,539.583Zm-11.875,3.845c0,1.131-3.581,6.333-4.373,6.333-1.546,0-.716-2.224,1.847-4.825C406.1,542.976,406.662,542.6,406.662,543.429Z" transform="translate(-103.801 -47.547)" fill-rule="evenodd" fill="url(#linear-gradient)"/>
  </g>
</svg>
